<!DOCTYPE svg PUBLIC "-//W3C//DTD SVG 1.1//EN" "http://www.w3.org/Graphics/SVG/1.1/DTD/svg11.dtd">
<!-- Uploaded to: SVG Repo, www.svgrepo.com, Transformed by: SVG Repo Mixer Tools -->
<svg width="256px" height="256px" viewBox="0 0 48.00 48.00" xmlns="http://www.w3.org/2000/svg" fill="#000000" stroke="#000000" stroke-width="0.00048000000000000007" transform="matrix(1, 0, 0, 1, 0, 0)rotate(0)">
<g id="SVGRepo_bgCarrier" stroke-width="0"/>
<g id="SVGRepo_tracerCarrier" stroke-linecap="round" stroke-linejoin="round" stroke="#CCCCCC" stroke-width="1.6320000000000001">
<defs>
<style>.a,.b{fill:none;stroke:#000000;stroke-linejoin:round;}.b{stroke-linecap:round;}</style>
</defs>
<rect class="a" x="24" y="5.5" width="18.5" height="18.5" rx="4"/>
<rect class="a" x="5.5" y="24" width="18.5" height="18.5" rx="4"/>
<rect class="a" x="24" y="24" width="18.5" height="18.5" rx="4"/>
<rect class="a" x="5.5" y="5.5" width="18.5" height="18.5" rx="4"/>
<polyline class="b" points="16.805 38.25 16.804 28.25 11.438 34.967 18.063 34.967"/>
<path class="b" d="M29.9375,16.4375a3.3125,3.3125,0,0,0,6.625,0v-3.375a3.3125,3.3125,0,0,0-6.625,0Z"/>
<path class="b" d="M11.4375,13.0625a3.3125,3.3125,0,0,1,6.625,0,3.0905,3.0905,0,0,1-.97,2.3423c-1.34,1.176-5.6548,4.3452-5.6548,4.3452h6.625"/>
<path class="b" d="M32.4375,33.25a2.5,2.5,0,0,0-2.5,2.5h0a2.5,2.5,0,0,0,2.5,2.5h1.625a2.5,2.5,0,0,0,2.5-2.5h0a2.5,2.5,0,0,0-2.5-2.5"/>
<path class="b" d="M34.0625,33.25a2.5,2.5,0,0,0,2.5-2.5h0a2.5,2.5,0,0,0-2.5-2.5h-1.625a2.5,2.5,0,0,0-2.5,2.5h0a2.5,2.5,0,0,0,2.5,2.5"/>
<line class="b" x1="32.4375" y1="33.25" x2="34.0625" y2="33.25"/>
</g>
<g id="SVGRepo_iconCarrier">
<defs>
<style>.a,.b{fill:none;stroke:#000000;stroke-linejoin:round;}.b{stroke-linecap:round;}</style>
</defs>
<rect class="a" x="24" y="5.5" width="18.5" height="18.5" rx="4"/>
<rect class="a" x="5.5" y="24" width="18.5" height="18.5" rx="4"/>
<rect class="a" x="24" y="24" width="18.5" height="18.5" rx="4"/>
<rect class="a" x="5.5" y="5.5" width="18.5" height="18.5" rx="4"/>
<polyline class="b" points="16.805 38.25 16.804 28.25 11.438 34.967 18.063 34.967"/>
<path class="b" d="M29.9375,16.4375a3.3125,3.3125,0,0,0,6.625,0v-3.375a3.3125,3.3125,0,0,0-6.625,0Z"/>
<path class="b" d="M11.4375,13.0625a3.3125,3.3125,0,0,1,6.625,0,3.0905,3.0905,0,0,1-.97,2.3423c-1.34,1.176-5.6548,4.3452-5.6548,4.3452h6.625"/>
<path class="b" d="M32.4375,33.25a2.5,2.5,0,0,0-2.5,2.5h0a2.5,2.5,0,0,0,2.5,2.5h1.625a2.5,2.5,0,0,0,2.5-2.5h0a2.5,2.5,0,0,0-2.5-2.5"/>
<path class="b" d="M34.0625,33.25a2.5,2.5,0,0,0,2.5-2.5h0a2.5,2.5,0,0,0-2.5-2.5h-1.625a2.5,2.5,0,0,0-2.5,2.5h0a2.5,2.5,0,0,0,2.5,2.5"/>
<line class="b" x1="32.4375" y1="33.25" x2="34.0625" y2="33.25"/>
</g>
</svg>